<svg xmlns="http://www.w3.org/2000/svg" width="67.229" height="52.08" viewBox="0 0 67.229 52.08">
  <g id="Group_5" data-name="Group 5" transform="translate(-91.385 -97.772)">
    <g id="Group_4" data-name="Group 4" transform="translate(91.385 97.772)">
      <g id="Group_3" data-name="Group 3">
        <g id="Laag_1" data-name="Laag 1">
          <g id="Group_2" data-name="Group 2">
            <g id="Group_1" data-name="Group 1">
              <path id="Path_1" data-name="Path 1" d="M164.777,149.333l-.164.169a10.241,10.241,0,0,1-3.486,2.308l-.066,0a10.472,10.472,0,0,1-3.776.72,12.223,12.223,0,0,1-5.469-1.185l-.1-.005-.252-.131-.072-.041a9.205,9.205,0,0,1-3.737-3.729l-.163-.282L144,150.9s-.7,3.586-1.008,5.344l-.006.118.084.086h0l.049.054a18.769,18.769,0,0,0,13.861,6.108l.281.014.229.012a20.414,20.414,0,0,0,9.863-2.556l.091-.047a20.327,20.327,0,0,0,4.521-3.468l.164-.169Z" transform="translate(-104.894 -110.701)" fill="#00b786"/>
              <path id="Path_2" data-name="Path 2" d="M105.627,123.213l0,.066,1.432,5.327.289-.458a10.332,10.332,0,0,1,6.529-4.29l.118.006a11.306,11.306,0,0,1,2.834-.22,9.845,9.845,0,0,1,4.079,1.188l.1.057a15.7,15.7,0,0,1,4.516,3.812l.2.261,3.341-4.7h0l1.071-4.972-.114-.087-.383-.329a20.658,20.658,0,0,0-7.61-4.456,17.265,17.265,0,0,0-4.693-.739l-.074,0A21.671,21.671,0,0,0,107,116.3l-.1.054-1.411,6.315Z" transform="translate(-95.078 -101.935)" fill="#00b786"/>
              <path id="Path_3" data-name="Path 3" d="M133.261,132.63l.005-.1c.02-.391-.066-1.925-.087-2.821l.012-.236a10.172,10.172,0,0,1,2.2-6.541l.048-.064c.213-.27.44-.525.682-.779a10.246,10.246,0,0,1,7.326-3.112,11.264,11.264,0,0,1,1.32.066l.074,0a10.58,10.58,0,0,1,6.017,2.927l.169.171,7.077-7.131-.168-.171a20.843,20.843,0,0,0-13.254-5.84l-.074,0-1.342-.068a22.359,22.359,0,0,0-8.71,1.683,16.924,16.924,0,0,0-4.952,3.217l-.078.07-.089,0,0,.044-.054.049h0l-.078.07a15.965,15.965,0,0,0-1.4,1.577l0,.044-1.138,4.983-3.773,5.206v3.637a10.5,10.5,0,0,1-5.979,9.4l-.068.033a10.259,10.259,0,0,1-4.215.912,10.527,10.527,0,0,1-10.609-10.224l-.051-3.388.011-.221-1.851-7.27L101.8,112l-.168-10.608-10.247-3.62.394,23.457-.005.1.134,8.351a8.255,8.255,0,0,0,.038.853,1.076,1.076,0,0,0-.007.154,20.386,20.386,0,0,0,7.721,14.58l.071.055a20.92,20.92,0,0,0,13.114,4.526l.74-.015.155.008a19.132,19.132,0,0,0,12.877-5.021l.062-.056c.481-.464.942-.95,1.382-1.468l.039-.05,1.1-5.857,4.047-4.645Z" transform="translate(-91.385 -97.772)" fill="#00b786"/>
            </g>
          </g>
        </g>
      </g>
    </g>
  </g>
</svg>
