<?xml version="1.0" encoding="utf-8"?>
<!-- Generator: Adobe Illustrator 26.5.0, SVG Export Plug-In . SVG Version: 6.00 Build 0)  -->
<svg version="1.1"
	 id="svg8" xmlns:osb="http://www.openswatchbook.org/uri/2009/osb" xmlns:dc="http://purl.org/dc/elements/1.1/" xmlns:cc="http://creativecommons.org/ns#" xmlns:rdf="http://www.w3.org/1999/02/22-rdf-syntax-ns#" xmlns:svg="http://www.w3.org/2000/svg"
	 xmlns="http://www.w3.org/2000/svg" xmlns:xlink="http://www.w3.org/1999/xlink" x="0px" y="0px" viewBox="0 0 734 734"
	 style="enable-background:new 0 0 734 734;" xml:space="preserve">
<style type="text/css">
	.st0{fill:#FFFFFF;}
	.st1{stroke:#FFFFFF;stroke-width:25.8556;stroke-miterlimit:15.1181;}
	.st2{fill-rule:evenodd;clip-rule:evenodd;fill:#FFFFFF;}
	.st3{fill:none;stroke:#F0827D;stroke-width:14.8532;stroke-miterlimit:15.1181;}
</style>
<g id="layer1" transform="translate(0,-32.41665)">
	<ellipse id="circle1199" class="st0" cx="362.4" cy="403.2" rx="351.2" ry="342.7"/>
	<ellipse id="path1185" class="st1" cx="362.4" cy="395.6" rx="351.2" ry="342.7"/>
	<g id="g1265" transform="matrix(2.4170273,0,0,2.5557268,70.439041,106.28282)">
		<g id="g1229" transform="matrix(0.721351,0,0,0.811444,6.54562,5.10326)">
			<path id="path1227" class="st2" d="M166,75.4c0-3.2-2.9-5.7-6.5-5.7c0,0,0,0,0,0c-3.6,0-6.5,2.6-6.5,5.7c0,23.2,0,109.6,0,132.7
				c0,3.2,2.9,5.7,6.5,5.7c0,0,0,0,0,0c3.6,0,6.5-2.6,6.5-5.7C166,184.9,166,98.5,166,75.4L166,75.4z"/>
		</g>
		<g id="g1233" transform="matrix(5.99295e-4,-0.721351,0.258566,2.14816e-4,18.4279,54.7844)">
			<path id="path1231" class="st2" d="M-138.8,344.5c0-10-2.9-18-6.5-18c0,0,0,0,0,0c-3.6,0-6.5,8.1-6.5,18c0,27.7,0,80.4,0,108.1
				c0,10,2.9,18,6.5,18c0,0,0,0,0,0c3.6,0,6.5-8.1,6.5-18C-138.8,425-138.8,372.3-138.8,344.5z"/>
		</g>
		<g id="g1237" transform="matrix(5.99295e-4,-0.721351,0.579332,4.81307e-4,10.2753,38.6396)">
			<path id="path1235" class="st2" d="M-76.7,128c0-4.4-2.9-8.1-6.5-8.1c0,0,0,0,0,0c-3.6,0-6.5,3.6-6.5,8.1c0,25.3,0,102.8,0,128.1
				c0,4.4,2.9,8.1,6.5,8.1c0,0,0,0,0,0c3.6,0,6.5-3.6,6.5-8.1C-76.7,230.8-76.7,153.3-76.7,128z"/>
		</g>
		<g id="g1241" transform="matrix(0.509521,-0.510622,0.393855,0.393005,1.94156,23.2426)">
			<path id="path1239" class="st2" d="M49.5,184.3c0-4.6-2.9-8.4-6.5-8.4c0,0,0,0,0,0c-3.6,0-6.5,3.8-6.5,8.4c0,25.5,0,102,0,127.5
				c0,4.6,2.9,8.4,6.5,8.4c0,0,0,0,0,0c3.6,0,6.5-3.8,6.5-8.4C49.5,286.3,49.5,209.8,49.5,184.3z"/>
		</g>
		<g id="g1245" transform="matrix(-0.51096,-0.509182,0.392744,-0.394115,28.1955,43.2602)">
			<path id="path1243" class="st2" d="M-139.5-15.9c0-4.6-2.9-8.4-6.5-8.4c0,0,0,0,0,0c-3.6,0-6.5,3.8-6.5,8.4c0,25.5,0,102,0,127.5
				c0,4.6,2.9,8.4,6.5,8.4c0,0,0,0,0,0c3.6,0,6.5-3.8,6.5-8.4C-139.5,86-139.5,9.6-139.5-15.9z"/>
		</g>
	</g>
	
		<ellipse id="path1267" transform="matrix(-1 -9.348881e-03 9.348881e-03 -1 721.2799 799.2393)" class="st3" cx="362.5" cy="397.9" rx="309.8" ry="301.6"/>
</g>
</svg>
