<?xml version="1.0" encoding="UTF-8"?><svg id="Layer_1" xmlns="http://www.w3.org/2000/svg" viewBox="0 0 1399 251.08"><defs><style>.cls-1{fill:#161616;}</style></defs><g><path class="cls-1" d="M112.43,225.35s14.89-10.6,21.36-20.56c5.22-8.02,7.4-17.41,7.4-17.41l-28.76,21.26-28.76-21.26s2.18,9.39,7.4,17.41c6.47,9.95,21.36,20.56,21.36,20.56"/><path class="cls-1" d="M96.37,173.23c-3.9-2.2-10.19-5.43-10.19-5.43,0,0-1.12-4.4-1.4-6.27-.28-1.88,1.65-3.98,3.86-3.31,2.58,.79,2.64,5.14,2.64,5.14,0,0,6.91-13.32,8.92-19.4,2.09-6.35,4.75-16.95,4.75-16.95,0,0,2.78-.97,4.1-4.34,.99-2.51,2.49-7.31,2.49-7.31,0,0-5.12,3.48-10.24,2.66-2.74-.44-6.56-3.39-11.91-9.41-5.35-6.01-9.9-10.67-13.83-10.4-3.93,.27-9.36,6.84-9.36,6.84,0,0,4.35-1.77,7.9-1.31,3.34,.43,5.47,3.22,9.18,7.2-.45-.14-.86-.24-1.2-.29-6.46-.92-9.98,2.4-9.98,2.4,0,0,4.3,4.4,12.57,7.08,5.71,1.85,10.05,2.68,13.24,3.32-3.51-.01-9.32-.17-12.93-1.03-7.83-1.86-17.15-8.17-17.15-8.17,0,0,3.78,8.6,14.53,12.12,6.23,2.04,11.89,2.19,16,1.84-.46,1.12-2.22,4.36-8.35,8.59-3.47,2.4-10.07,1.1-13.54-1.58-7.95-6.14-15.06-16.43-15.15-16.59-.13-.22,8.9,20.62,20.53,24.31,3.02,.96,8.02,.38,10.52-.91,3.48-1.8,5.03-3.55,5.03-3.55,0,0,1.17,1.32-.5,5.43-.82,2.04-2.81,5.23-5.4,6.59-3.33,1.75-7.68,1.4-14.66-.86-1.77-.57-5.97-2.05-6.89-3.99,0,0-3.72,5.81-2.88,21.9,.93,17.85,2.48,36.89,2.48,36.89l28.55,28.49s-22.67-26.86-24.36-34.08c-.93-3.99-3.43-12.8-3.43-24.29,0-6.6-.29-17.87,4.82-20.24,3.48-1.61,8.98-1.59,11.97-.56,2.68,.92,2.52,2.42,2.52,2.42,0,0-1.15-.85-2.29-1.02-1.89-.29-4.09,.87-5.08,1.96-1.3,1.42-1.04,3.47-.9,4.17,.14,.7,1.57,9.08,1.57,9.08,0,0,4.29,1.6,9.21,3.84,11.92,5.42,20.28,16.62,20.28,16.62,0,0-5.68-11.71-16.06-17.59"/><path class="cls-1" d="M91.77,101.57c2.4,3.14,11.48,12.98,16.76,10.3,3.33-1.69,3.89-5.45,3.89-5.45,0,0-1.33,2.24-5.1,1.62-4.79-.79-17.02-11.89-21.82-15.8-4.59-3.74-10.44-4.63-10.44-4.63,0,0,7.29,1.61,16.71,13.96"/><path class="cls-1" d="M105.9,93.1c1.56,1.5,1.09,5.31,1.09,5.31,0,0-1.9-.03-5.2-1.75-2.92-1.53-4.88-2.69-4.88-2.69,0,0-.04,1.1,2.17,3.45,4.27,4.53,10.89,5.02,10.89,5.02,.38-7.29-.12-9.05-1.14-10.26-1.17-1.4-3.17-3.52-9.97-4.8-3.78-.71-14.26-3.93-14.26-3.93,9.14,5.07,10.63,5.19,12.76,5.65,6.06,1.31,6.98,2.51,8.53,4.01"/><path class="cls-1" d="M96.07,167.38c5.56,1.48,13.64,12.07,13.64,12.07l.72-50.1-4.46,42.2s-2.95-4.16-6.4-5.61c2.69-6.37,2.85-13.43,2.85-13.43,0,0-1.95,7.73-6.36,14.87"/><path class="cls-1" d="M68.35,89.51c.96,0,1.75-.79,1.75-1.76s-.78-1.76-1.75-1.76-1.75,.79-1.75,1.76,.78,1.76,1.75,1.76"/><path class="cls-1" d="M104.37,238.51c-.96,0-1.75,.79-1.75,1.76s.78,1.76,1.75,1.76,1.75-.79,1.75-1.76-.78-1.76-1.75-1.76"/><path class="cls-1" d="M63.28,94.28c0-1.17-.94-2.11-2.1-2.11s-2.09,.94-2.09,2.11,.94,2.11,2.09,2.11,2.1-.95,2.1-2.11"/><path class="cls-1" d="M55.74,99.81c-1.62,0-2.93,1.32-2.93,2.96s1.32,2.96,2.93,2.96,2.93-1.33,2.93-2.96-1.32-2.96-2.93-2.96"/><path class="cls-1" d="M30.03,193.45c-7.69,0-13.92-5.94-13.92-13.26s6.23-13.26,13.92-13.26,13.92,5.94,13.92,13.26-6.23,13.26-13.92,13.26m2.53-34.56c-19.26-1.32-25.5,13.94-24.56,21.79,.68-10.11,7.58-14.23,13.41-15.96-5.56,3.03-9.32,8.84-9.32,15.52,0,9.8,8.09,17.74,18.07,17.74s18.07-7.94,18.07-17.74c0-4.55-1.76-8.68-4.62-11.82,4.19,3.23,7.89,8.17,9.69,15.34,.3-13.2-7.76-23.99-20.72-24.88"/><path class="cls-1" d="M148.39,135.22c-3.47,2.68-10.07,3.97-13.54,1.58-6.13-4.23-7.89-7.46-8.35-8.59,4.1,.35,9.77,.19,16-1.84,10.75-3.51,14.53-12.12,14.53-12.12,0,0-9.33,6.32-17.15,8.17-3.61,.86-9.42,1.02-12.93,1.03,3.19-.63,7.53-1.47,13.24-3.31,8.27-2.68,12.57-7.08,12.57-7.08,0,0-3.52-3.31-9.98-2.4-.34,.05-.75,.15-1.2,.29,3.71-3.98,5.84-6.78,9.18-7.2,3.55-.45,7.9,1.31,7.9,1.31,0,0-5.44-6.57-9.36-6.84-3.93-.27-8.48,4.38-13.83,10.4-5.35,6.02-9.17,8.97-11.91,9.41-5.12,.82-10.24-2.66-10.24-2.66,0,0,1.5,4.8,2.49,7.32,1.32,3.37,4.1,4.34,4.1,4.34,0,0,2.66,10.6,4.76,16.95,2,6.08,8.91,19.4,8.91,19.4,0,0,.06-4.34,2.64-5.14,2.21-.68,4.14,1.43,3.86,3.31-.28,1.88-1.4,6.27-1.4,6.27,0,0-6.29,3.23-10.19,5.43-10.38,5.87-16.05,17.59-16.05,17.59,0,0,8.37-11.2,20.28-16.62,4.93-2.24,9.21-3.84,9.21-3.84,0,0,1.42-8.38,1.57-9.08,.14-.7,.4-2.75-.9-4.17-.99-1.09-3.19-2.24-5.08-1.96-1.13,.17-2.29,1.02-2.29,1.02,0,0-.16-1.5,2.52-2.42,2.98-1.02,8.49-1.05,11.97,.56,5.11,2.37,4.82,13.64,4.82,20.24,0,11.48-2.5,20.29-3.43,24.29-1.68,7.22-24.36,34.08-24.36,34.08l28.55-28.49s1.55-19.04,2.48-36.89c.84-16.09-2.88-21.9-2.88-21.9-.92,1.95-5.12,3.42-6.89,3.99-6.98,2.26-11.33,2.61-14.66,.86-2.59-1.36-4.57-4.55-5.4-6.59-1.66-4.11-.5-5.43-.5-5.43,0,0,1.54,1.75,5.03,3.55,2.51,1.29,7.5,1.87,10.52,.91,11.64-3.69,20.66-24.54,20.53-24.32-.09,.16-7.2,10.46-15.15,16.59"/><path class="cls-1" d="M116.32,111.87c5.28,2.68,14.37-7.16,16.76-10.3,9.42-12.35,16.71-13.96,16.71-13.96,0,0-5.85,.89-10.43,4.63-4.81,3.91-17.04,15.01-21.83,15.8-3.77,.62-5.1-1.62-5.1-1.62,0,0,.57,3.76,3.89,5.45"/><path class="cls-1" d="M125.77,97.41c2.22-2.35,2.17-3.45,2.17-3.45,0,0-1.96,1.17-4.88,2.69-3.29,1.72-5.2,1.75-5.2,1.75,0,0-.47-3.81,1.09-5.31,1.56-1.5,2.47-2.7,8.53-4.01,2.13-.46,3.62-.58,12.76-5.65,0,0-10.48,3.21-14.26,3.93-6.8,1.28-8.8,3.4-9.97,4.8-1.02,1.22-1.52,2.98-1.14,10.26,0,0,6.61-.49,10.88-5.02"/><path class="cls-1" d="M118.87,171.55l-4.46-42.2,.72,50.1s8.08-10.59,13.64-12.07c-4.4-7.13-6.36-14.87-6.36-14.87,0,0,.17,7.07,2.85,13.43-3.45,1.45-6.4,5.61-6.4,5.61"/><path class="cls-1" d="M156.51,89.51c.96,0,1.75-.79,1.75-1.76s-.78-1.76-1.75-1.76-1.75,.79-1.75,1.76,.78,1.76,1.75,1.76"/><path class="cls-1" d="M120.48,238.51c-.96,0-1.75,.79-1.75,1.76s.78,1.76,1.75,1.76,1.75-.79,1.75-1.76-.78-1.76-1.75-1.76"/><path class="cls-1" d="M112.43,237.53c-1.71,0-3.1,1.4-3.1,3.13s1.39,3.13,3.1,3.13,3.1-1.4,3.1-3.13-1.39-3.13-3.1-3.13"/><path class="cls-1" d="M163.67,96.4c1.16,0,2.1-.95,2.1-2.11s-.94-2.11-2.1-2.11-2.1,.94-2.1,2.11,.94,2.11,2.1,2.11"/><path class="cls-1" d="M169.11,105.72c1.62,0,2.93-1.33,2.93-2.96s-1.32-2.96-2.93-2.96-2.93,1.32-2.93,2.96,1.32,2.96,2.93,2.96"/><path class="cls-1" d="M210.81,202.15c3.23-3.62,4.61-8.56,4.01-14.09-3.18,13.12-13.59,15.07-20.07,15.07-4.3,0-15.91,0-19.96-14.01-.68,4.16-.12,9.3,3.28,13.2-6.6-5.05-10.88-13.05-10.88-22.07,0-15.29,12.37-27.53,27.44-27.53s27,12.86,27.03,27.38c.02,8.73-4.24,16.86-10.85,22.05m-44.35-53.52l14.2-23.91s-4.4-5.88-4.03-10.08c.6-6.9,8.76-9.07,8.76-9.07,0,0-3.29,2.89-3.39,6.03-.13,4.15,1.2,5.49,1.2,5.49,.09-2.11,.72-4.62,1.86-5.59,1.2-1.01,2.37-.99,2.37-.99l-.03,28.21s-3.4,.9-6.31,2.48c-5.96,3.24-4.44,6.02-4.44,6.02,0,0,1.1-1.99,8.03-3.05,7.38-1.14,12.76,4.84,12.76,4.84-5.92-1.89-14.4,.75-18.01,2.89-3.03,1.79-9.53,8.42-10.73,8.57-1.54,.19-2.12-2.79-2.26-5.99l.03-5.87Zm-5.37,71.66l-25.37,17.44c1.64-2.12,3.1-4.1,4.13-5.46,3.26-4.32,13.04-14.64,13.04-14.64,0,0-.15,1.69-.59,2.78-.92,2.24-2.17,3.43-2.17,3.43,0,0,1.18,.44,2.75-2.07,2.67-4.26,2.15-9.12,2.15-9.12,0,0-6.25,2.64-19.04,18.93-12.79,16.28-16.36,14.22-23.56,15.13-7.2-.91-10.77,1.15-23.56-15.13-12.79-16.28-19.04-18.93-19.04-18.93,0,0-.52,4.86,2.15,9.12,1.57,2.51,2.75,2.07,2.75,2.07,0,0-1.25-1.19-2.17-3.43-.44-1.08-.6-2.78-.6-2.78,0,0,9.79,10.32,13.04,14.64,1.02,1.36,2.49,3.35,4.13,5.46l-25.37-17.44-.68-72.84-4.43-7.08,3.23-4.73-4.03,3.45-2.47-3.95,3.79-5.05-4.66,3.65-1.88-3,4.93-6.03-6.06,4.22-2.77-4.43,9.49-17.41s-2.9,2.55-5.57,3.28c-2.66,.73-7-5.96-7-5.96,0,0,4.03-5.85,9.59-12.23,6.12-7.03,14.15-14.64,22.15-14.15,6.49,.4,13.92,2.2,20.27,3.74,8.15,1.98,14.75,3.87,14.75,3.87,0,0-.21-.08-.57-.21,.34,.11,.57,.17,.57,.17,0,0,.22-.07,.57-.17-.36,.13-.57,.21-.57,.21,0,0,6.6-1.89,14.75-3.87,6.35-1.54,13.79-3.34,20.28-3.74,8-.49,16.03,7.12,22.15,14.15,5.56,6.39,9.59,12.23,9.59,12.23,0,0-4.34,6.69-7,5.96-2.66-.72-5.56-3.28-5.56-3.28l9.49,17.41-2.77,4.43-6.06-4.22,4.93,6.03-1.87,3-4.66-3.65,3.79,5.05-2.47,3.95-4.03-3.45,3.23,4.73-4.43,7.08-.68,72.84Zm-104.91-59.81c-1.2-.15-7.7-6.78-10.73-8.57-3.61-2.14-12.09-4.78-18.01-2.89,0,0,5.38-5.98,12.77-4.84,6.92,1.07,8.03,3.05,8.03,3.05,0,0,1.52-2.78-4.45-6.02-2.92-1.59-6.31-2.48-6.31-2.48l-.02-28.21s1.17-.02,2.36,.99c1.14,.97,1.77,3.47,1.87,5.59,0,0,1.32-1.34,1.2-5.49-.09-3.14-3.38-6.03-3.38-6.03,0,0,8.16,2.17,8.76,9.07,.36,4.2-4.03,10.08-4.03,10.08l14.2,23.91,.03,5.87c-.14,3.2-.72,6.18-2.26,5.99m-9.38,41.83c3.4-3.9,3.97-9.05,3.28-13.2-4.05,14.01-15.66,14.01-19.96,14.01-6.48,0-16.89-1.95-20.07-15.07-.61,5.53,.78,10.48,4.01,14.1-6.6-5.2-10.87-13.33-10.85-22.06,.03-14.53,11.95-27.38,27.03-27.38s27.44,12.25,27.44,27.53c0,9.03-4.28,17.02-10.88,22.07M68.35,52.28c6.36-6.27,14.33-12.04,23.12-17.16,10.78-6.27,20.96-8.45,20.96-8.45,0,0-2.56-.89-6.41-.92-1.43-.01-2.79,.13-2.79,.13,0,0-5.34-8.15-7.24-12.03-1.9-3.89-1.39-6.01-.97-6.12,4.29-1.15,10.52,13.41,10.52,13.41,0,0-5.32-14.98-1.4-16.38,2.81-1.01,6.5,18.15,6.5,18.15,0,0-2.64-20.05,1.78-20.05s1.78,20.05,1.78,20.05c0,0,3.69-19.15,6.5-18.15,3.92,1.4-1.4,16.38-1.4,16.38,0,0,6.24-14.56,10.53-13.41,.42,.11,.93,2.23-.97,6.12-1.9,3.88-7.24,12.03-7.24,12.03,0,0-1.35-.14-2.78-.13-3.85,.03-6.41,.92-6.41,.92,0,0,10.18,2.17,20.96,8.45,8.8,5.12,16.76,10.88,23.12,17.16,16.5,16.28,20.2,35.86,17.18,36.98-1.61,.6-6.97-15.95-17.18-29.38-8.97-11.79-15.82-15.54-15.82-15.54,0,0,4.01,4.73,9.11,12.56,4.53,6.96,7.81,15.41,6.6,16.52-1.33,1.21-7.63-7.99-13.89-19.39-5.89-10.71-13.2-16.24-13.2-16.24,0,0,6.48,8.69,10.28,18.24,2.89,7.25,7.5,17.64,3.27,17.95-5.67,.42-5.48-9.27-10.05-20.24-5.03-12.06-12.56-20.51-12.56-20.51,0,0,6.44,15.37,8.19,24.91,1.65,9.02,5.48,20.62-1.17,16.52-3.66-2.26-2.93-11.43-6.16-22.23-3.35-11.19-7.66-22.54-7.66-22.54,0,0,3.28,22.81,3.57,29.34,.29,6.53-.98,13.01-1.26,15.12-.32,2.33-3.31,4.45-3.31,4.45,0,0-2.99-2.13-3.31-4.45-.29-2.11-1.55-8.59-1.26-15.12,.29-6.53,3.57-29.34,3.57-29.34,0,0-4.31,11.36-7.66,22.54-3.24,10.81-2.5,19.98-6.16,22.23-6.65,4.1-2.83-7.51-1.17-16.52,1.75-9.53,8.19-24.91,8.19-24.91,0,0-7.53,8.45-12.56,20.51-4.58,10.97-4.38,20.65-10.05,20.24-4.24-.31,.37-10.7,3.26-17.95,3.81-9.55,10.28-18.24,10.28-18.24,0,0-7.32,5.53-13.2,16.24-6.26,11.39-12.57,20.59-13.89,19.39-1.22-1.11,2.06-9.56,6.6-16.52,5.09-7.83,9.1-12.56,9.1-12.56,0,0-6.85,3.75-15.82,15.54-10.22,13.43-15.58,29.97-17.19,29.38-3.02-1.12,.68-20.69,17.19-36.98m152.4,112.59c-.92-1.5-3.47-6.24-11.81-12.46-9.89-7.39-17.75-13.37-17.75-13.37l-.51-36.83-7.83,.03c-.35-.46-.73-.95-1.14-1.47,0-3.05-.16-11.59-1.9-19.54-2.16-9.9-10.54-23.6-22.16-33.87-12.1-10.7-24.41-18.54-31.38-20.53,.96-1.94,14.69-26.82,14.69-26.82h-57.07s13.72,24.88,14.69,26.82c-6.97,1.98-19.28,9.82-31.38,20.53-11.61,10.27-20,23.98-22.16,33.87-1.74,7.96-1.9,16.49-1.9,19.54-.41,.53-.79,1.01-1.14,1.47l-7.83-.03-.51,36.83s-7.86,5.99-17.75,13.37c-8.33,6.23-10.88,10.96-11.8,12.46-5.82,9.52-5.29,23.18,.54,31.74,5.94,8.72,15.65,16.18,29.38,14.27,12.64-1.76,15.48-6.75,18.12-8.82,2.65-2.07,6.11-3.56,6.54,4.01l.09,16.9,41.62,28.1h24.06l41.62-28.1,.09-16.9c.43-7.57,3.89-6.08,6.54-4.01,2.65,2.07,5.48,7.06,18.12,8.82,13.73,1.91,23.44-5.55,29.38-14.27,5.83-8.56,6.36-22.22,.54-31.74"/><path class="cls-1" d="M208.75,180.19c0,7.32-6.23,13.26-13.92,13.26s-13.92-5.94-13.92-13.26,6.23-13.26,13.92-13.26,13.92,5.94,13.92,13.26m-16.45-21.3c-12.97,.88-21.02,11.68-20.72,24.88,1.79-7.18,5.5-12.12,9.69-15.34-2.86,3.14-4.62,7.27-4.62,11.82,0,9.8,8.09,17.74,18.07,17.74s18.07-7.94,18.07-17.74c0-6.69-3.77-12.5-9.33-15.52,5.84,1.72,12.73,5.85,13.41,15.96,.94-7.85-5.3-23.11-24.56-21.79"/><path class="cls-1" d="M138.57,204.04c-7.42,13.07-26.15,25.84-26.15,25.84,0,0-18.72-12.77-26.15-25.84-7.9-13.91-7.8-25.27-7.8-25.27l33.94,25.55,33.95-25.55s.1,11.36-7.8,25.27m10.79-31.3l-36.94,27.39-36.94-27.39s-.77,14.9,7.24,30.54c8.78,17.13,29.7,30.81,29.7,30.81,0,0,20.92-13.67,29.7-30.81,8.01-15.63,7.24-30.54,7.24-30.54"/></g><path class="cls-1" d="M289.45,215.02v-30.17l81.75-89.93h-62.31c-5.34,0-9.91-1.8-13.72-5.41-3.81-3.6-5.72-8.06-5.72-13.38v-12.52h129.2v32.44l-75.75,85.94h78.61v33.01h-132.05Z"/><path class="cls-1" d="M517.61,138.75c-5.34,2.66-12.77,5.12-22.29,7.4,0,0-7.74,1.76-13.15,2.85-5.4,1.09-12.26,4.44-14.86,7.4-2.13,2.42-4,8.35-4,12.52,0,5.69,1.71,10.25,5.15,13.66,3.43,3.04,8.38,4.55,14.86,4.55,10.67,0,19.05-3.03,25.15-9.11,6.09-6.07,9.15-14.41,9.15-25.04v-14.23Zm9.15,70.01c-8,4.18-16.49,6.73-25.44,7.68-8.96,.94-16.86,1.42-23.73,1.42-13.72,0-25.73-3.7-36.02-11.1-10.29-7.4-15.44-19.64-15.44-36.71,0-15.94,4.66-27.32,14.01-34.15,9.33-6.83,21.25-11.33,35.73-13.66,2.22-.36,12.58-1.89,16.01-2.28,16.77-2.28,25.15-7.2,25.15-14.8,0-5.69-2.96-9.39-8.86-11.1-5.92-1.71-11.35-2.56-16.29-2.56-5.34,0-10.1,.76-14.29,2.28-4.2,1.52-7.25,4.37-9.15,8.53h-38.3c1.52-11.75,6.86-21.43,16.01-29.03,10.29-8.72,24.96-13.09,44.02-13.09,21.34,0,37.34,3.61,48.02,10.82,11.05,7.59,16.58,18.21,16.58,31.87v51.79c0,15.18-2.77,27.04-8.29,35.57-5.53,8.54-12.11,14.71-19.72,18.5"/><path class="cls-1" d="M694.28,215.02h-39.45V118.26c0-9.11-2.77-15.74-8.29-19.92-5.53-4.17-11.72-6.26-18.58-6.26s-12.96,2.09-18.29,6.26c-5.34,4.18-8,10.81-8,19.92v96.76h-40.02V126.23c0-25.8,6.76-43.06,20.29-51.79,13.53-8.73,28.49-13.46,44.88-14.23,8.76,0,17.34,.95,25.72,2.85,8.38,1.91,16.01,5.69,22.87,11.39,5.72-4.93,12.48-8.44,20.29-10.53,7.81-2.08,15.91-3.32,24.3-3.7,16.77,0,32.2,4.37,46.31,13.09,14.1,8.73,21.15,26.38,21.15,52.93v88.79h-20.01c-5.72,0-10.39-1.8-14.01-5.41-3.62-3.6-5.43-8.25-5.43-13.95V118.26c0-9.11-2.77-15.74-8.29-19.92-5.53-4.17-11.72-6.26-18.58-6.26s-13.06,2.09-18.58,6.26c-5.53,4.18-8.29,10.81-8.29,19.92v96.76Z"/><path class="cls-1" d="M930.75,215.02h-20.01c-5.72,0-10.39-1.8-14-5.41-3.63-3.6-5.43-8.25-5.43-13.95V118.26c0-9.11-2.77-15.74-8.29-19.92-5.53-4.17-11.72-6.26-18.58-6.26s-12.96,2.09-18.29,6.26c-5.34,4.18-8,10.81-8,19.92v96.76h-40.02V126.23c0-25.8,6.76-43.06,20.29-51.79,13.53-8.73,28.49-13.46,44.88-14.23,16.76,0,32.2,4.37,46.3,13.09,14.1,8.73,21.15,26.38,21.15,52.93v88.79Z"/><path class="cls-1" d="M979.43,123.95h58.31c-.77-10.25-3.43-17.83-8-22.77-4.96-5.31-12.01-7.97-21.15-7.97-8.38,0-15.24,2.66-20.58,7.97-5.34,5.32-8.2,12.9-8.57,22.77m68.6,44.39h28.58c-4.2,15.94-12.2,28.09-24.01,36.43-11.82,8.73-26.68,13.09-44.59,13.09-21.73,0-38.69-7.02-50.88-21.06-12.2-13.66-18.29-33.2-18.29-58.62s5.9-43.26,17.72-56.91c12.19-14.03,29.16-21.06,50.88-21.06,22.87,0,40.59,6.83,53.16,20.49,12.19,14.04,18.3,33.58,18.3,58.62v6.26c0,1.9-.2,3.23-.57,3.98h-98.9c.38,11.77,3.24,20.49,8.57,26.18,4.95,6.07,12.38,9.11,22.3,9.11,6.47,0,12-1.33,16.58-3.98,1.15-.37,2.19-1.04,3.14-1.99,.95-.95,2-1.99,3.14-3.13,.37-1.14,1.8-2.65,4.29-4.55,2.47-1.89,6-2.85,10.57-2.85"/><path class="cls-1" d="M1080.41,164.93h38.87c.38,7.59,3.23,13.29,8.57,17.07,5.72,3.8,13.34,5.69,22.87,5.69,6.86,0,12.77-1.32,17.72-3.98,4.57-2.65,6.86-6.26,6.86-10.81,0-6.83-8-11.95-24.01-15.37-6.86-1.14-12.01-2.28-15.44-3.41-20.21-4.93-33.73-10.81-40.59-17.65-7.63-6.83-11.43-15.93-11.43-27.32,0-14.41,5.52-26.37,16.58-35.86,11.43-8.72,26.3-13.09,44.59-13.09,19.82,0,35.63,4.37,47.45,13.09,11.05,9.49,16.95,21.83,17.72,37h-24.58c-7.25,0-12.78-3.22-16.58-9.68-1.53-1.51-3.06-3.03-4.57-4.55-4.57-3.41-10.86-5.12-18.87-5.12s-13.34,1.14-17.15,3.41c-3.43,2.28-5.15,5.69-5.15,10.25,0,6.07,9.91,11.2,29.73,15.37,2.29,.76,4.29,1.33,6,1.71,1.71,.38,3.33,.57,4.86,.57,19.44,4.93,32.96,10.63,40.59,17.08,7.24,6.83,10.86,15.93,10.86,27.32,0,16.7-6.1,29.6-18.29,38.7-11.43,8.35-28.58,12.52-51.45,12.52s-37.93-4.36-48.59-13.09c-11.06-8.72-16.58-21.43-16.58-38.13v-1.71Z"/><path class="cls-1" d="M1222.26,63.62h20.58c5.33,0,9.91,1.9,13.72,5.69,3.81,3.8,5.72,8.35,5.72,13.66V215.02h-40.02V63.62Zm0-44.39h20.58c5.33,0,9.91,1.9,13.72,5.69,3.81,3.8,5.72,8.35,5.72,13.66v11.95h-40.02V19.23Z"/><path class="cls-1" d="M1361.84,138.75c-5.34,2.66-12.77,5.12-22.29,7.4,0,0-7.82,1.72-13.15,2.85-5.33,1.12-12.37,4.37-14.74,7.39-2,2.55-4.13,8.35-4.13,12.52,0,5.69,1.71,10.25,5.15,13.66,3.43,3.04,8.38,4.55,14.86,4.55,10.67,0,19.05-3.03,25.15-9.11,6.09-6.07,9.15-14.41,9.15-25.04v-14.23Zm9.15,70.01c-8,4.18-16.49,6.73-25.44,7.68-8.96,.94-16.86,1.42-23.73,1.42-13.72,0-25.73-3.7-36.02-11.1-10.29-7.4-15.44-19.64-15.44-36.71,0-15.94,4.66-27.32,14.01-34.15,9.33-6.83,21.24-11.42,35.73-13.66,2.09-.32,12.58-1.89,16.01-2.28,16.76-2.28,25.15-7.2,25.15-14.8,0-5.69-2.96-9.39-8.86-11.1-5.92-1.71-11.35-2.56-16.29-2.56-5.34,0-10.11,.76-14.29,2.28-4.2,1.52-7.24,4.37-9.15,8.53h-38.3c1.52-11.75,6.86-21.43,16.01-29.03,10.29-8.72,24.96-13.09,44.02-13.09,21.34,0,37.34,3.61,48.02,10.82,11.05,7.59,16.58,18.21,16.58,31.87v51.79c0,15.18-2.77,27.04-8.29,35.57-5.53,8.54-12.1,14.71-19.72,18.5"/></svg>