<?xml version="1.0" encoding="utf-8"?>
<!-- Generator: Adobe Illustrator 26.5.0, SVG Export Plug-In . SVG Version: 6.00 Build 0)  -->
<svg version="1.1" id="Layer_1" xmlns="http://www.w3.org/2000/svg" xmlns:xlink="http://www.w3.org/1999/xlink" x="0px" y="0px"
	 viewBox="0 0 240.7 96.9" style="enable-background:new 0 0 240.7 96.9;" xml:space="preserve">
<style type="text/css">
	.st0{fill:#161616;}
</style>
<g>
	<path class="st0" d="M214.1,11.8c1.5,0.9,2.5,1.3,2.5,1.3s-1.4-0.1-2.3-0.4c0,0-0.7,1-1.9,0.5c0,0-0.7-0.3-0.6-1.3
		c0,0,0-0.5-0.4-0.7C211.4,11.2,212.6,10.9,214.1,11.8L214.1,11.8z M184.7,76.9c5.2-1.5,12.2-0.2,11.5-8.9c-0.4-4.7,0.4-6.9,2.7-8.2
		c5.5-2.9,15.2-6.4,15.2-16.1c-2.6-0.3-4.1-0.7-6-2.1c8.1,2.2,11.8,0.4,18.8-4.9c-0.7-0.2-1.2-0.6-1.5-1.1c1.8-2.6,2.8-5.1,3.6-7.7
		c0.8,0.4,1.4,0.3,1.8-1.9c1.1-1.5,2.1-2.9,3.1-4.4c0.7-1.9,0.2-2.6-0.5-3.1c0.2-1.5,1.2-1.4,2.2-1.1c-0.6-1.9-1.9-1.9-3.6-0.9
		c-0.4-1.2,0.1-2,1.3-2.4c-1.6-1.1-2.9-0.2-3.9,1.6c-0.6-0.8-0.3-1.7,0.9-2.5c-1.7-0.1-2.8,0.7-3.1,2.7c-1.5-0.5-2,3.2-2.3,7.4
		c0,1.8-0.4,3.5-1.3,4.9c-1.3,1.9-2.3,2.3-2.9,2.3l2.3,1.1c0,0-2.6,1.8-4.9,2.3c-1.9,0.4-2.4,0.4-5.1,0c0,0,0.8,1.6,3.2,3.1
		c-1.8-0.4-3.5-0.7-5.1-3c-1.4-1.9-2.1-3-3.7-4.4c2.9,2.3,7.6,4,10.7,2.8l2-0.7c-2.5-1-5.7-4.2-7.2-5.2c-1.7-1.1-2.4-1.6-3.9-1.8
		c-1.2-0.2-2-0.1-3.3-1c-1.5-1.3-1.5-3-1.5-4c-0.1-2.2,1.6-4.1,3.6-4.8c-1.8,1.2-2.5,2.8-2.5,4.6c0,1.2,0,2.5,1.4,3.3
		c1.9,0.9,2.8,0.3,5.2,1.5l1.4,0.9c1.4,1,1.8,1.4,2.7,2.3c1-1.4,2.5-2.5,2.5-4c-0.5,0.2-1.1,0.5-1.8,0.3c-0.6-0.1-2-0.5-2.6-0.7
		c-0.8-0.2-1.5-1-1-2.2c0.6-1.3,2.3-1,3.7-1c0.6,0,1.2,0.1,1.6,0.3c0.1,0.6,0.3,1.3,0.4,1.8c0.6-0.3,1.9-0.8,2.3-1.3
		c0.3-0.8,0.6-2,0.8-2.8c-0.4-0.7-0.6-1.6-0.8-2.4c0.4,0.5,0.7,0.8,1.2,1.2c0.7-0.6,1.1-1.3,1.2-2.1c-1.8-1.4-4.4-3-6.6-3.8
		c-0.5-0.4-2.6-1.8-3.5-2.3c2-0.8,1.7-3,0.9-4.1c-1.5-1.8-4.2-3-5.8-4.4c-0.3,0.9-0.4,1.7,0.1,2.7c-1.5-2.5-6.5-3.3-11.2-1.8
		c3.4,0.8,5.4,1.5,6.8,3.2c-6.4-2.6-10.8-2-14,2c2.5-0.6,5.2-0.8,8.2,0.5c-1.9-0.1-3.5-0.3-4.6,0.1c-2.3,0.7-3.3,1.2-6,4.6
		c1.9-1.1,4.3-1.7,6.2-1.4c-3.4,1.6-4,2.2-5.7,4.8c-1.1,1.9-1.6,4.8-1.5,8.1c0.7-2.9,4-7.8,8.9-7.8c-6.2,2.2-10,12.6-6.9,18.7
		c-0.1-2.3,1.8-10.7,7.4-12.1c-3.8,3.7-5.9,12.2-4.3,17.9l1.5,4.8c0.4-4.9,1.2-8.4,4.3-12.7c0.5,3.4,3,6.2,6.4,8.3
		c-1.9-4.1-0.8-5.6-0.8-9.4c0,0,0.2,0.6,0.4,1c0.2,0.6,0.6,1.8,0.7,2.8c0.2,2.8,0.3,2.9,0.6,4.2c0.3,1.4,1.4,3.5,1.4,3.5
		s-1.3,0-2.8-0.7c-0.8-0.4-3.4-2-5.2-5.5c-0.8,1.3-2.2,3.6-2.8,8.1l-1.3,2c-1.3,2.2-3,3.9-4.1,4.7c-2.1,1.4-4.6,2-6.1,3.6
		c-0.5,0-2.8-0.3-5.3-1.1s-5.9-2.3-7.3-5c-1.4-2.6-0.8-6.2,1.8-10.4c0.3-0.5,0.6-1,0.9-1.5c3.2-5.3,5.4-9.1,6.8-12.1l0,0
		c1-1.6,1.5-3.5,1.6-5.4c0-0.5,0-1,0-1.5c-0.3-4.6-2.8-9-6.3-10.4c-2.6-1-5.7,0.7-7.4,2.1c-2.1,1.8-3.5,1.8-6.5,1.5
		c1.7,3.2,4.5,5,8.3,4.8c1.6-0.1,3.5-0.9,5.8-1.4c0.3,0,0.5,0,0.7,0c0.7,0.7,1.2,1.3,1.6,1.9c0.2,0.3,0.3,0.6,0.4,0.9
		c0.1,0.5,0.2,1,0.2,1.6c0,0.3,0,0.5-0.1,0.8c-0.6,3.1-3.4,7.8-8,15.5c-0.3,0.5-0.6,1-0.9,1.5c-3.2,5.3-3.8,9.9-1.9,13.6
		c3,5.7,11,7.3,14.1,7.7c-0.1,0.8-0.1,1.7,0.1,2.7c0.3,2.3,0.4,4.7,0.7,7.1c0.2,1.4-1,1.7-2.3,2.2c-4,1.6-5,5.5-5.5,9.4
		c0.7-0.7,2.2-2.9,2.3-1.4c0.8,8.4,4.6,7.2,4.1,13.2c0.3,3.8,8.4,4.2,9.4,6.4c0.7-1.8,0.1-3.1-0.5-3.6c0.6-0.6,1.8,0,2.5,1.6
		c0.7-2.2-0.1-3.5-0.9-3.8c0.8-0.4,2,0,3.1,1.3c0.2-1.8-0.4-3.4-2.1-3.3c1.1-0.6,0.4-2.6-1-2.7c-0.5-0.3-2.1,0.6-3.5-0.2
		C185.4,84.2,180.8,78.1,184.7,76.9L184.7,76.9z"/>
	<path class="st0" d="M21.4,62.3c-7.7,0-14.7-6.4-14.7-17.8c0-11.2,5.6-15.2,11.9-15.2c6.6,0,13.9,5.6,13.9,17.2
		C32.5,60.6,25.2,62.3,21.4,62.3L21.4,62.3z M70.4,69.8c-0.2,0-0.4,0.1-0.7,0.2c-3.3,1.3-6.9,1.7-9.4,1.7c-3.3,0-9.7-0.5-19.8-5.7
		l-9.7-5c3-2,8.4-7.4,8.4-15.8c0-11.3-8-18.2-19.5-18.2C5.6,27,0,37.8,0,45.6c0,8.7,5.5,19.1,19.6,19.1c2.5,0,5.6-0.5,7.6-1.3
		l7.6,4.4c7.9,4.7,13.1,6.5,20.3,6.5c6.9,0,12.4-2.2,15.2-3.6c0.3-0.1,0.6-0.3,0.6-0.6C70.9,70,70.7,69.8,70.4,69.8L70.4,69.8z"/>
	<path class="st0" d="M74.1,33.5c0-0.3-0.3-0.4-0.9-0.4c-1.6,0-4.5,0.1-5,0.1c0,0-2.9-0.1-5.1-0.1c-0.6,0-0.9,0.1-0.9,0.4
		c0,0.3,0.2,0.4,0.7,0.4s1.2,0,1.5,0.1c1.3,0.4,1.7,0.8,1.8,2.2c0,1.3,0.1,2.5,0.1,8.7V50c0,4.2-0.1,7.7-2.5,10
		c-1.7,1.6-3.8,2.2-5.7,2.2c-1.4,0-3.5-0.1-5.3-1.6c-2.1-1.6-3.2-3.9-3.2-9.9v-5.8c0-6.2,0-7.4,0.1-8.7c0.1-1.4,0.4-2,1.5-2.2
		c0.5-0.1,0.8-0.1,1.3-0.1c0.4,0,0.7-0.1,0.7-0.4c0-0.3-0.3-0.4-0.9-0.4c-1.5,0-4.4,0.1-5.4,0.1c-1.3,0-4.1-0.1-6.3-0.1
		c-0.6,0-0.9,0.1-0.9,0.4c0,0.3,0.2,0.4,0.7,0.4c0.6,0,1.3,0,1.6,0.1c1.3,0.4,1.7,0.8,1.8,2.2c0.1,1.3,0,2.5,0,8.7v6
		c0,5.9,1.7,8.9,3.8,10.8c3.1,2.7,7.5,2.8,9.7,2.8c2.7,0,6-0.4,8.9-2.9c3.6-2.9,4-7.7,4-12.3v-4.4c0-6.2,0-7.4,0.1-8.7
		c0.1-1.4,0.4-2,1.5-2.2c0.5-0.1,0.8-0.1,1.3-0.1C73.9,33.9,74.1,33.8,74.1,33.5L74.1,33.5z"/>
	<path class="st0" d="M71.7,5.4C71.7,5.1,71.8,5,72,5c0.3-0.1,0.9-0.1,1.7-0.1c1.8,0,4.8,1.3,4.8,5.7c0,2.6-0.9,4-1.8,4.7
		c-0.6,0.4-1,0.5-2.2,0.5c-0.8,0-1.7-0.1-2.4-0.3c-0.2-0.1-0.3-0.2-0.3-0.6L71.7,5.4L71.7,5.4z M65.4,4c0.4,0,1,0,1.2,0.1
		c1,0.2,1.3,0.7,1.3,1.8c0.1,1,0.1,1.9,0.1,6.6V18c0,2.9,0,5.3-0.2,6.7c-0.1,0.9-0.3,1.6-0.9,1.7c-0.3,0.1-0.7,0.1-1.1,0.1
		s-0.5,0.1-0.5,0.3s0.2,0.3,0.6,0.3c1.3,0,3.2-0.1,3.8-0.1c0.5,0,2.8,0.1,4.6,0.1c0.4,0,0.6-0.1,0.6-0.3s-0.1-0.3-0.4-0.3
		c-0.4,0-1.1-0.1-1.5-0.1c-0.9-0.1-1.1-0.8-1.2-1.7c-0.2-1.3-0.2-3.8-0.2-6.7v-0.4c0-0.2,0.1-0.2,0.3-0.2l2.7,0.1
		c0.2,0,0.4,0,0.6,0.2c0.4,0.5,1.8,2.6,3.1,4.3c1.8,2.4,2.9,3.9,4.3,4.6c0.8,0.4,1.6,0.6,3.3,0.6h3c0.4,0,0.6-0.1,0.6-0.3
		s-0.1-0.3-0.4-0.3s-0.5,0-0.9-0.1c-0.5-0.1-1.8-0.3-3.5-2.1c-1.8-1.9-4-4.7-6.8-8.2c3.2-2.6,4.1-4.7,4.1-7c0-2.1-1.2-3.7-2.1-4.3
		c-1.7-1.2-3.8-1.3-5.8-1.3c-1,0-3.3,0.1-4.4,0.1c-0.7,0-2.6-0.1-4.3-0.1c-0.5,0-0.7,0.1-0.7,0.3C64.8,3.9,65,4,65.4,4L65.4,4z"/>
	<path class="st0" d="M147.8,7.5c0.3,0,0.7,0,0.9,0.1c0.9,0.3,1.1,0.5,1.2,1.4c0,0.8,0,1.6,0,5.6v4.7c0,2.4,0,4.5-0.1,5.7
		c-0.1,0.8-0.3,1.3-0.8,1.4c-0.2,0.1-0.6,0.1-1,0.1c-0.3,0-0.4,0.2-0.4,0.3c0,0.2,0.2,0.3,0.5,0.3c0.6,0,1.2,0,1.9-0.1
		c0.7,0,1.2,0,1.6,0c1.1,0,2.3,0,3.7,0.1s3,0.1,4.9,0.1c1.4,0,1.6-0.1,1.8-0.7c0.2-0.8,0.4-2.8,0.4-3.1c0-0.3-0.1-0.6-0.3-0.6
		s-0.3,0.2-0.3,0.4c-0.1,0.5-0.3,1.3-0.7,1.6c-0.7,0.7-1.7,0.8-3.2,0.8c-2.1,0-3.2-0.2-3.7-0.6c-0.6-0.5-0.6-2.2-0.6-5.6v-4.7
		c0-4,0-4.8,0.1-5.6c0.1-0.9,0.3-1.3,1-1.4c0.3-0.1,0.8-0.1,1.1-0.1s0.5-0.1,0.5-0.3c0-0.2-0.2-0.2-0.6-0.2c-1.1,0-3.3,0.1-4,0.1
		c-0.8,0-2.5-0.1-3.8-0.1c-0.4,0-0.6,0.1-0.6,0.2C147.3,7.4,147.5,7.5,147.8,7.5L147.8,7.5z"/>
	<path class="st0" d="M81.5,77l-0.9-0.7c-2.6-2-3.3-3.1-3.3-4.5c0-1.9,1.4-3.2,3.7-3.2c2,0,2.9,0.9,3.4,1.5c0.7,0.8,0.8,1.8,0.8,2.1
		c0,0.4,0.1,0.6,0.3,0.6s0.3-0.3,0.3-0.9c0-2.4,0.1-3.3,0.1-3.8c0-0.2-0.2-0.3-0.4-0.4c-0.8-0.2-2.1-0.5-4.2-0.5
		c-4.3,0-7.2,2.5-7.2,5.9c0,2.5,1.2,4.7,4.6,7.4l1.4,1.1c2.6,2,3.1,3.5,3.1,5c0,1.7-1.4,3.6-4.2,3.6c-1.9,0-3.8-0.8-4.5-3.2
		c-0.2-0.5-0.3-1.2-0.3-1.6c0-0.3,0-0.5-0.3-0.5c-0.2,0-0.3,0.3-0.4,0.8c0,0.5-0.2,2.4-0.2,4.1c0,0.7,0.1,0.8,0.6,1.1
		c1.3,0.6,2.8,0.8,4.6,0.8c1.7,0,3.4-0.3,5-1.3c2.3-1.5,2.9-3.6,2.9-5.4C86.6,82,85.3,79.9,81.5,77L81.5,77z"/>
	<path class="st0" d="M132.3,18.7L135,12c0-0.1,0.1-0.2,0.2-0.2c0.1,0,0.1,0.2,0.1,0.2l2.6,6.8c0,0.1,0,0.2-0.1,0.2h-5.3
		C132.3,18.9,132.2,18.8,132.3,18.7L132.3,18.7z M125.5,26.5c-0.2,0-0.6,0-0.8,0s-0.3,0.1-0.3,0.3s0.2,0.3,0.5,0.3
		c1.4,0,2.9-0.1,3.2-0.1c0.9,0,2.2,0.1,3.1,0.1c0.3,0,0.4-0.1,0.4-0.3s-0.1-0.3-0.4-0.3h-0.4c-0.8,0-1.1-0.3-1.1-0.8
		c0-0.3,0.1-1,0.4-1.6l1.5-3.6c0.1-0.2,0.1-0.2,0.3-0.2h6.5c0.1,0,0.2,0,0.3,0.2l2.1,5.3c0.1,0.3-0.1,0.6-0.2,0.6
		c-0.3,0-0.3,0.1-0.3,0.3s0.3,0.2,0.8,0.2c2.3,0.1,4.3,0.1,5.3,0.1s1.2-0.1,1.2-0.3s-0.1-0.3-0.4-0.3c-0.3,0-0.6,0-1-0.1
		c-0.5-0.1-1.3-0.4-2.3-2.8c-1.8-4-6.3-14.9-7-16.4c-0.3-0.6-0.4-0.8-0.8-0.8c-0.3,0-0.5,0.3-0.8,1.1l-7.2,16.7
		C127.3,25.5,126.8,26.3,125.5,26.5L125.5,26.5z"/>
	<path class="st0" d="M107.8,7.5c0.3,0,0.8,0.2,1.2,0.3c0.5,0.3,1.1,0.9,1.8,1.9c1,1.4,4.7,7.3,4.9,7.7c0.4,0.8,0.6,1.3,0.6,2.8v2.2
		c0,0.4,0,1.5-0.1,2.7c-0.1,0.8-0.3,1.3-0.8,1.4c-0.3,0.1-0.6,0.1-1,0.1c-0.3,0-0.4,0.2-0.4,0.3c0,0.2,0.2,0.3,0.6,0.3
		c1,0,2.9-0.1,3.6-0.1c0.8,0,2.6,0.1,4.3,0.1c0.4,0,0.6-0.1,0.6-0.3c0-0.1-0.2-0.3-0.5-0.3c-0.4,0-1,0-1.4-0.1
		c-0.8-0.1-1.1-0.6-1.1-1.4c-0.1-1.1-0.1-2.2-0.1-2.7v-2.1c0-0.9-0.1-1.7,0.3-2.7c0.5-1.1,4.4-7.4,5.3-8.5c0.6-0.7,0.8-1,1.4-1.3
		c0.4-0.2,0.9-0.3,1.2-0.3s0.5-0.1,0.5-0.3c0-0.2-0.2-0.2-0.5-0.2c-0.5,0-2.3,0.1-2.9,0.1c-0.8,0-1.8-0.1-2.7-0.1
		c-0.3,0-0.5,0.1-0.5,0.2c0,0.2,0.3,0.3,0.5,0.3c0.5,0.1,0.6,0.3,0.6,0.6s-0.1,0.8-0.4,1.4c-0.4,0.8-3.8,6.5-4.1,7.1
		c-0.5-0.7-4.1-7-4.6-7.8c-0.2-0.4-0.3-0.7-0.3-0.9c0-0.2,0.2-0.3,0.4-0.4c0.4-0.1,0.6-0.1,0.6-0.3c0-0.2-0.2-0.2-0.4-0.2
		c-1.3,0-2.5,0.1-3.1,0.1c-0.9,0-3-0.1-3.4-0.1c-0.3,0-0.5,0.1-0.5,0.2C107.4,7.4,107.6,7.5,107.8,7.5L107.8,7.5z"/>
	<path class="st0" d="M97.3,8c4.4,0,8,3.6,8,9.5c0,7.6-4.4,8.5-6.3,8.5c-5.2,0-8.3-4.3-8.3-9.8C90.6,9.6,94.2,8,97.3,8L97.3,8z
		 M97.8,27.4c7.1,0,11.5-4.8,11.5-10.9S105,6.6,98,6.6c-8.3,0-11.5,5.9-11.5,10.4C86.5,21.7,89.8,27.4,97.8,27.4L97.8,27.4z"/>
	<path class="st0" d="M162.3,33.1c-2.1,0-3.7,0.1-4.1,0.1c-0.9,0-3.2-0.1-5.4-0.1c-0.6,0-1.1,0-1.1,0.4c0,0.2,0.1,0.4,0.7,0.4
		c0.6,0,1.6,0,2.2,0.2c1,0.4,1.4,1.1,1.4,3.6l0.4,18.2h-0.2c-0.6-0.6-6.3-6.3-9.1-9.2c-6.2-6-12.5-12.5-13-13
		c-0.7-0.7-1.3-1.3-1.8-1.3c-0.4,0-0.7,0.6-0.7,1.4L131.2,58c0,3.6-0.2,4.7-1.3,5c-0.6,0.1-1.3,0.2-1.9,0.2c-0.4,0-0.7,0.2-0.7,0.4
		c0,0.4,0.4,0.4,1,0.4c2.2,0,4.2-0.1,4.6-0.1c0.8,0,2.7,0.1,5.5,0.1c0.6,0,1-0.1,1-0.4c0-0.2-0.2-0.4-0.7-0.4c-0.7,0-1.5,0-2.2-0.3
		c-0.8-0.3-1.3-1.3-1.4-4.4l-0.5-16.7h0.1c0.8,0.7,5.3,5.7,9.9,10.1c4.4,4.3,9.7,9.3,12.4,11.8c0.4,0.4,1,0.9,1.7,0.9
		c0.3,0,0.7-0.4,0.7-1.3l0.5-25.8c0-2.3,0.4-3,1.5-3.4c0.5-0.1,0.9-0.1,1.3-0.1c0.5,0,0.7-0.2,0.7-0.4
		C163.2,33.1,162.9,33.1,162.3,33.1L162.3,33.1z"/>
	<path class="st0" d="M156.7,79.1l-1.1-0.6c-2.5-1.4-2.9-2.3-2.9-3.5c0-1.8,1.8-2.8,3.8-2.8c1.8,0,2.7,0.7,3.1,1.3
		c0.6,0.7,0.7,1.5,0.7,1.8s0.1,0.5,0.3,0.5s0.3-0.3,0.3-0.8c0-2.1,0.1-2.8,0.1-3.2c0-0.2-0.1-0.3-0.4-0.3c-0.7-0.2-2.1-0.4-3.9-0.4
		c-3.8,0-6.9,2.1-6.9,5.3c0,2.3,1.1,4.1,4.3,6l1.6,0.9c2.4,1.4,2.7,2.6,2.7,3.8c0,1.9-1.4,3.4-3.8,3.4c-1.7,0-3.8-0.7-4.4-2.6
		c-0.2-0.5-0.2-1-0.2-1.4c0-0.2,0-0.4-0.3-0.4c-0.2,0-0.3,0.3-0.3,0.7s-0.2,2.1-0.2,3.5c0,0.6,0.1,0.7,0.5,0.9
		c1.2,0.5,2.9,0.7,4.5,0.7c1.5,0,3.3-0.2,4.6-1.1c2-1.4,2.8-3,2.8-5C161.4,83.2,160.3,81.1,156.7,79.1L156.7,79.1z"/>
	<path class="st0" d="M237,44.4c0.8-1.5,1.8-2.1,3.7-0.6c-0.4-2.1-1.5-3.1-3.7-2.4c0.6-1.9,1.8-1.8,3.2-1.3
		c-1.1-1.6-2.2-2.7-4.2-0.9c-0.4-1.6-1.3-2-2.7-1c-3.4,4.2-10,9.2-14.5,4.8c-1.4,0.4-2.5,0.7-3.6,0.7c0.1,2.5-0.6,4.8-2.2,7.9
		c3.4,3.9,9.6,3.1,14.7,2c-1.3-0.5-2.7-1-2.1-1.9c1-0.6,1.9-1.4,2.9-2.4c1,0.4,3.8,2,4-0.6c1.4,0.2,4.3,0.7,4.3-2
		c1-1.2,1.8-0.7,2.7,0.6C239.3,45.7,239,44.2,237,44.4L237,44.4z"/>
	<path class="st0" d="M225.2,86.3c-0.3-1.6-1.3-2.3-3.1-2.2c0.9-1.2,1.8-1.3,2.9-0.8c-0.3-1.2-0.8-2.2-2.8-1.5
		c0-1.3-0.4-2.5-2.5-2.2c-1.4,0.2-2.8,0.9-4.3,1c-2.3,0.2-6.2-4-4.2-6.9c3.9-5.6,6.1-9.5,0.1-13.1c-3.3-2-6.9-1.4-11-0.3
		c-1.6,0.5-2.7,2.1-2.9,3.9c-0.2,2.1,0.4,5.3-0.3,7.2c2.5-0.4,4.5-0.8,6.3-0.3c0.9,0.1,1.2,0.6,1.1,1.5c-0.5,1.4-1.7,2.7-2.4,4.3
		c-0.8,2,0.1,3.7,0.7,5.3c-0.3-2.3,0-4,1.6-3.9c2.3,0.2,3.1,2.9,4.4,5.1c1.6,4,4.8,4.5,7.8,5.5c2.8,0.7,3.2,0.1,4.3-0.1
		c0.8-0.5,1.8,0.1,2.9,1.3c0.1-2.2-0.6-3.3-2-3.3C222.7,85.6,223.8,85.4,225.2,86.3L225.2,86.3z"/>
	<path class="st0" d="M141.2,88.3c-1.7,1.4-3.5,1.8-6,1.8c-2.2,0-3.3-0.6-3.6-1.1c-0.2-0.3-0.3-1.2-0.3-1.9c0-0.5-0.1-2.6-0.1-5.4
		v-3.3c0-2.1,0-4.3,0-5.2c0-0.3,0.1-0.4,0.3-0.5s1.1-0.2,1.7-0.2c2.2,0,5.2,0.3,7.7,2.5c1.2,1.1,2.6,3.3,2.6,6.6
		C143.5,84.5,143,86.8,141.2,88.3L141.2,88.3z M133.8,71.2c-1.7,0-3.6,0.1-4.5,0.1c-0.8,0-2.5-0.1-4-0.1c-0.4,0-0.6,0.1-0.6,0.3
		s0.2,0.3,0.5,0.3c0.4,0,0.9,0,1.1,0.1c0.9,0.2,1.1,0.5,1.2,1.4c0,0.8,0,1.6,0,5.6v4.7c0,2.4,0,4.5-0.1,5.7
		c-0.1,0.8-0.3,1.3-0.8,1.4c-0.3,0.1-0.6,0.1-1,0.1c-0.3,0-0.4,0.2-0.4,0.3c0,0.2,0.2,0.3,0.5,0.3c0.6,0,1.2,0,1.9-0.1
		c0.7,0,1.3,0,1.6,0c0.7,0,1.7,0.1,2.8,0.2s2.3,0.2,3.3,0.2c5.1,0,8-1.9,9.2-3.1c1.6-1.5,3-4.1,3-7.4c0-3.2-1.2-5.4-2.6-6.8
		C141.9,71.2,137.2,71.2,133.8,71.2L133.8,71.2z"/>
	<path class="st0" d="M104.1,87.1c-0.2,0-0.3,0.1-0.3,0.4c-0.2,1.1-0.5,1.7-1.2,2s-1.9,0.3-2.6,0.3c-2.8,0-3.7-0.4-3.7-2.2
		c0-0.8,0-3,0-3.9v-2.1c0-0.2,0-0.3,0.2-0.3c0.7,0,3.8,0.1,4.3,0.1c1,0.1,1.4,0.5,1.5,1c0.1,0.3,0.1,0.7,0.1,1
		c0,0.1,0.1,0.2,0.2,0.2c0.2,0,0.3-0.4,0.3-0.6s0.1-1.3,0.1-1.8c0.2-1.3,0.2-1.8,0.2-1.9c0-0.2-0.1-0.3-0.2-0.3s-0.2,0.2-0.4,0.3
		c-0.3,0.3-0.7,0.3-1.3,0.4c-0.6,0.1-4.2,0.1-4.8,0.1c-0.2,0-0.2-0.1-0.2-0.3v-6.6c0-0.2,0.1-0.3,0.2-0.3c0.6,0,3.8,0.1,4.3,0.1
		c1.4,0.1,1.6,0.5,1.8,1c0.2,0.3,0.2,0.8,0.2,1s0,0.3,0.2,0.3s0.3-0.3,0.3-0.4c0.1-0.3,0.1-1.5,0.2-1.8c0.1-1.2,0.2-1.5,0.2-1.7
		c0-0.1,0-0.2-0.2-0.2c-0.1,0-0.3,0.1-0.4,0.1c-0.2,0-0.7,0.1-1.2,0.2c-0.5,0-6.6,0-7.5,0c-0.8,0-2.5-0.1-4-0.1
		c-0.4,0-0.6,0.1-0.6,0.3s0.2,0.3,0.5,0.3c0.4,0,0.9,0,1.1,0.1c0.9,0.2,1.1,0.5,1.2,1.4c0,0.8,0,1.6,0,5.6v4.7c0,2.4,0,4.5-0.1,5.7
		c-0.1,0.8-0.2,1.3-0.8,1.4c-0.2,0.1-0.6,0.1-1,0.1c-0.3,0-0.4,0.2-0.4,0.3c0,0.2,0.2,0.3,0.5,0.3c0.6,0,1.3,0,1.9-0.1
		c0.7,0,1.3,0,1.6,0c0.8,0,1.8,0,3.2,0.1c1.3,0.1,3,0.1,5.1,0.1c1,0,1.3,0,1.5-0.7c0.2-0.5,0.4-2.3,0.4-2.9
		C104.4,87.4,104.3,87.1,104.1,87.1L104.1,87.1z"/>
	<path class="st0" d="M97.7,63.1c0.2-0.8,0.6-3.6,0.6-4.5c0-0.4,0-1-0.4-1c-0.3,0-0.4,0.2-0.5,0.6c-0.3,1.7-0.8,2.5-1.8,3
		c-1.1,0.5-2.9,0.5-4,0.5c-4.3,0-5.6-0.6-5.7-3.4c0-1.2,0-4.7,0-6.1v-3.3c0-0.2,0-0.4,0.2-0.4c1.1,0,5.9,0.1,6.6,0.2
		c1.6,0.1,2.1,0.8,2.4,1.6c0.1,0.5,0.1,1.1,0.1,1.5c0,0.2,0.1,0.3,0.4,0.3c0.4,0,0.4-0.6,0.4-0.9c0-0.3,0.1-1.9,0.2-2.7
		c0.2-2.1,0.3-2.7,0.3-3c0-0.2-0.1-0.4-0.3-0.4s-0.3,0.2-0.7,0.5c-0.4,0.4-1,0.5-2,0.6s-6.4,0.1-7.4,0.1c-0.2,0-0.3-0.2-0.3-0.4
		V35.8c0-0.2,0.1-0.4,0.3-0.4c0.9,0,5.9,0.1,6.6,0.2c2.1,0.2,2.5,0.8,2.8,1.5c0.2,0.5,0.3,1.2,0.3,1.5s0,0.5,0.3,0.5
		s0.4-0.5,0.5-0.7c0.1-0.5,0.2-2.3,0.2-2.7c0.1-1.9,0.3-2.4,0.3-2.6c0-0.2,0-0.4-0.3-0.4c-0.2,0-0.4,0.1-0.7,0.2
		c-0.3,0-1,0.2-1.8,0.2s-10.2,0-11.5,0c-1.2,0-3.9-0.1-6.1-0.1c-0.6,0-1,0.1-1,0.4c0,0.3,0.3,0.4,0.7,0.4c0.6,0,1.3,0,1.7,0.1
		c1.3,0.4,1.7,0.8,1.8,2.2c0,1.3,0,2.5,0,8.7V52c0,3.8,0,7-0.2,8.7c-0.1,1.2-0.4,2-1.3,2.2C78,63,77.5,63,76.9,63
		c-0.5,0-0.7,0.2-0.7,0.4c0,0.3,0.3,0.4,0.8,0.4c0.9,0,1.9,0,2.9-0.1c1,0,1.9,0,2.4,0c1.3,0,2.8,0,4.9,0.1s4.6,0.1,7.8,0.1
		C97,64.1,97.4,64.1,97.7,63.1L97.7,63.1z"/>
	<path class="st0" d="M121.6,87.1c-0.2,0-0.2,0.1-0.3,0.4c-0.2,1.1-0.5,1.7-1.2,2s-1.9,0.3-2.6,0.3c-2.8,0-3.7-0.4-3.7-2.2
		c0-0.8,0-3,0-3.9v-2.1c0-0.2,0-0.3,0.2-0.3c0.7,0,3.8,0.1,4.3,0.1c1,0.1,1.4,0.5,1.5,1c0.1,0.3,0.1,0.7,0.1,1
		c0,0.1,0.1,0.2,0.3,0.2c0.3,0,0.3-0.4,0.3-0.6s0.1-1.3,0.1-1.8c0.2-1.3,0.2-1.8,0.2-1.9c0-0.2-0.1-0.3-0.2-0.3s-0.2,0.2-0.4,0.3
		c-0.3,0.3-0.7,0.3-1.3,0.4c-0.6,0.1-4.2,0.1-4.8,0.1c-0.2,0-0.2-0.1-0.2-0.3v-6.6c0-0.2,0.1-0.3,0.2-0.3c0.6,0,3.8,0.1,4.3,0.1
		c1.4,0.1,1.6,0.5,1.8,1c0.2,0.3,0.2,0.8,0.2,1s0,0.3,0.2,0.3s0.3-0.3,0.3-0.4c0.1-0.3,0.1-1.5,0.2-1.8c0.1-1.2,0.2-1.5,0.2-1.7
		c0-0.1,0-0.2-0.2-0.2c-0.1,0-0.3,0.1-0.4,0.1c-0.2,0-0.7,0.1-1.2,0.2c-0.5,0-6.6,0-7.5,0c-0.8,0-2.5-0.1-4-0.1
		c-0.4,0-0.6,0.1-0.6,0.3s0.2,0.3,0.5,0.3c0.4,0,0.9,0,1.1,0.1c0.9,0.2,1.1,0.5,1.2,1.4c0,0.8,0,1.6,0,5.6v4.7c0,2.4,0,4.5-0.1,5.7
		c-0.1,0.8-0.3,1.3-0.8,1.4c-0.3,0.1-0.6,0.1-1,0.1c-0.3,0-0.4,0.2-0.4,0.3c0,0.2,0.2,0.3,0.5,0.3c0.6,0,1.3,0,1.9-0.1
		c0.7,0,1.3,0,1.6,0c0.8,0,1.8,0,3.2,0.1c1.3,0.1,3,0.1,5.1,0.1c1,0,1.3,0,1.5-0.7c0.2-0.5,0.4-2.3,0.4-2.9
		C121.8,87.4,121.8,87.1,121.6,87.1L121.6,87.1z"/>
	<path class="st0" d="M124.2,57.6c-0.3,0-0.4,0.2-0.5,0.6c-0.3,1.7-0.8,2.5-1.8,3c-1.1,0.5-2.9,0.5-4,0.5c-4.3,0-5.6-0.6-5.7-3.4
		c0-1.2,0-4.7,0-6.1v-3.3c0-0.2,0-0.4,0.2-0.4c1.1,0,5.9,0.1,6.6,0.2c1.6,0.1,2.1,0.8,2.4,1.6c0.1,0.5,0.1,1.1,0.1,1.5
		c0,0.2,0.1,0.3,0.4,0.3c0.4,0,0.4-0.6,0.4-0.9c0-0.3,0.1-1.9,0.2-2.7c0.2-2.1,0.3-2.7,0.3-3c0-0.2-0.1-0.4-0.3-0.4
		s-0.3,0.2-0.7,0.5c-0.4,0.4-1,0.5-2,0.6s-6.4,0.1-7.4,0.1c-0.2,0-0.3-0.2-0.3-0.4V35.8c0-0.2,0.1-0.4,0.3-0.4
		c0.9,0,5.9,0.1,6.6,0.2c2.1,0.2,2.5,0.8,2.8,1.5c0.2,0.5,0.3,1.2,0.3,1.5s0,0.5,0.3,0.5s0.4-0.5,0.5-0.7c0.1-0.5,0.2-2.3,0.2-2.7
		c0.1-1.9,0.3-2.4,0.3-2.6c0-0.2,0-0.4-0.3-0.4c-0.2,0-0.4,0.1-0.7,0.2c-0.3,0-1,0.2-1.8,0.2s-10.2,0-11.5,0c-1.2,0-3.9-0.1-6.1-0.1
		c-0.6,0-1,0.1-1,0.4c0,0.3,0.3,0.4,0.7,0.4c0.6,0,1.3,0,1.7,0.1c1.3,0.4,1.7,0.8,1.8,2.2c0,1.3,0,2.5,0,8.7V52c0,3.8,0,7-0.2,8.7
		c-0.1,1.2-0.4,2-1.3,2.2c-0.4,0.1-0.9,0.1-1.5,0.1c-0.5,0-0.7,0.2-0.7,0.4c0,0.3,0.3,0.4,0.8,0.4c0.9,0,1.9,0,2.9-0.1
		c1,0,1.9,0,2.4,0c1.2,0,2.8,0,4.9,0.1s4.6,0.1,7.8,0.1c1.6,0,2,0,2.3-1.1c0.2-0.8,0.6-3.6,0.6-4.5
		C124.6,58.1,124.5,57.6,124.2,57.6L124.2,57.6z"/>
</g>
</svg>
